<svg width="1200" height="900" viewBox="0 0 1200 900" fill="none" xmlns="http://www.w3.org/2000/svg" role="img" aria-labelledby="title desc">
  <title id="title">RivuLab research field</title>
  <desc id="desc">A stylized river network with sensor nodes, terrain blocks, and data paths.</desc>
  <rect width="1200" height="900" fill="#F4EFE6"/>
  <path d="M0 654C138 594 257 597 357 654C456 710 559 731 666 676C773 620 873 503 980 505C1088 506 1155 581 1200 615V900H0V654Z" fill="#DDE9E2"/>
  <path d="M0 418C101 391 200 400 297 447C394 494 503 526 624 473C746 420 856 315 982 328C1085 339 1159 395 1200 432V666C1117 602 1043 584 979 611C880 652 813 747 696 780C579 814 469 782 358 724C246 666 133 671 0 738V418Z" fill="#BFD6D2"/>
  <path d="M-35 470C77 426 184 428 286 478C388 529 494 573 624 518C754 463 858 374 982 382C1083 388 1163 443 1237 517" stroke="#0D6F7A" stroke-width="76" stroke-linecap="round"/>
  <path d="M-35 470C77 426 184 428 286 478C388 529 494 573 624 518C754 463 858 374 982 382C1083 388 1163 443 1237 517" stroke="#55A8A8" stroke-width="42" stroke-linecap="round"/>
  <path d="M160 383C211 379 248 397 286 478" stroke="#85B86C" stroke-width="30" stroke-linecap="round"/>
  <path d="M690 488C737 427 778 389 828 351" stroke="#85B86C" stroke-width="30" stroke-linecap="round"/>
  <path d="M911 389C930 311 967 268 1036 228" stroke="#85B86C" stroke-width="30" stroke-linecap="round"/>
  <g opacity=".84">
    <rect x="124" y="142" width="210" height="132" rx="8" fill="#FFFFFF"/>
    <rect x="151" y="172" width="156" height="14" rx="7" fill="#B95535"/>
    <rect x="151" y="207" width="92" height="14" rx="7" fill="#0D4652"/>
    <rect x="151" y="242" width="128" height="14" rx="7" fill="#D9E0DF"/>
  </g>
  <g opacity=".9">
    <rect x="800" y="610" width="256" height="144" rx="8" fill="#FFFFFF"/>
    <path d="M832 704L875 667L914 690L954 641L1015 681" stroke="#0D6F7A" stroke-width="12" stroke-linecap="round" stroke-linejoin="round"/>
    <circle cx="875" cy="667" r="10" fill="#B95535"/>
    <circle cx="954" cy="641" r="10" fill="#E8B85A"/>
  </g>
  <g fill="#0D4652">
    <circle cx="286" cy="478" r="19"/>
    <circle cx="624" cy="518" r="19"/>
    <circle cx="982" cy="382" r="19"/>
  </g>
  <g fill="#E8B85A" stroke="#FFFFFF" stroke-width="8">
    <circle cx="160" cy="383" r="20"/>
    <circle cx="828" cy="351" r="20"/>
    <circle cx="1036" cy="228" r="20"/>
  </g>
  <path d="M286 478L160 383M624 518L828 351M982 382L1036 228" stroke="#10212B" stroke-width="4" stroke-dasharray="10 12" opacity=".42"/>
  <g opacity=".72">
    <rect x="106" y="712" width="96" height="68" rx="8" fill="#FFFFFF"/>
    <rect x="226" y="676" width="118" height="104" rx="8" fill="#FFFFFF"/>
    <rect x="368" y="720" width="88" height="60" rx="8" fill="#FFFFFF"/>
    <path d="M138 745H170M258 711H312M398 750H427" stroke="#6F8A3D" stroke-width="10" stroke-linecap="round"/>
  </g>
  <path d="M90 91H1110V809H90V91Z" stroke="#10212B" stroke-opacity=".08" stroke-width="2"/>
</svg>
